<svg width="16" height="16" viewBox="0 0 16 16" fill="none" xmlns="http://www.w3.org/2000/svg">
<path fill-rule="evenodd" clip-rule="evenodd" d="M0.833313 8.00001C0.833313 4.04197 4.04194 0.833344 7.99998 0.833344C11.958 0.833344 15.1666 4.04197 15.1666 8.00001C15.1666 11.9581 11.958 15.1667 7.99998 15.1667C4.04194 15.1667 0.833313 11.9581 0.833313 8.00001ZM9.19534 9.54237C9.36351 9.49528 9.49492 9.36386 9.54201 9.1957L10.367 6.24942C10.4157 6.07547 10.3668 5.88878 10.239 5.76105C10.1113 5.63332 9.92462 5.58442 9.75067 5.63312L6.80439 6.45808C6.63623 6.50517 6.50481 6.63658 6.45773 6.80475L5.63277 9.75103C5.58406 9.92497 5.63297 10.1117 5.7607 10.2394C5.88843 10.3671 6.07512 10.416 6.24906 10.3673L9.19534 9.54237Z" fill="black"/>
</svg>
