<svg width="53" height="40" viewBox="0 0 53 40" fill="none" xmlns="http://www.w3.org/2000/svg">
<path d="M39.9258 24.2857H43.7507C43.8599 24.2857 44.1149 24.249 44.2242 24.249C44.9528 24.1025 45.572 23.4432 45.572 22.5275C45.572 21.6484 44.9528 20.9891 44.2242 20.806C44.1149 20.7693 43.8964 20.7693 43.7507 20.7693H39.9258V24.2857Z" fill="url(#paint0_linear_671_6317)"/>
<path d="M43.3109 0C39.6681 0 36.681 2.96703 36.681 6.66667V13.5897H46.043C46.2616 13.5897 46.5166 13.5897 46.6987 13.6264C48.8115 13.7363 50.3779 14.8352 50.3779 16.7399C50.3779 18.2418 49.3215 19.5238 47.3544 19.7802V19.8535C49.5037 20 51.1429 21.2088 51.1429 23.0769C51.1429 25.0916 49.3215 26.4103 46.9173 26.4103H36.6445V39.9634H46.3708C50.0137 39.9634 53.0008 36.9963 53.0008 33.2967V0H43.3109Z" fill="url(#paint1_linear_671_6317)"/>
<path d="M45.0987 17.1795C45.0987 16.3004 44.4794 15.7143 43.7508 15.6044C43.6779 15.6044 43.4958 15.5678 43.3865 15.5678H39.9258V18.7913H43.3865C43.4958 18.7913 43.7144 18.7913 43.7508 18.7546C44.4794 18.6447 45.0987 18.0587 45.0987 17.1795Z" fill="url(#paint2_linear_671_6317)"/>
<path d="M6.66634 0C3.02353 0 0.0364282 2.96703 0.0364282 6.66667V23.1136C1.89426 24.0293 3.82495 24.6154 5.75564 24.6154C8.05061 24.6154 9.28916 23.2234 9.28916 21.3187V13.5531H14.9719V21.282C14.9719 24.2857 13.1141 26.7399 6.81205 26.7399C2.9871 26.7399 0 25.8974 0 25.8974V39.9267H9.7263C13.3691 39.9267 16.3562 36.9597 16.3562 33.2601V0H6.66634Z" fill="url(#paint3_linear_671_6317)"/>
<path d="M24.9893 0C21.3465 0 18.3594 2.96703 18.3594 6.66667V15.3846C20.0351 13.956 22.9493 13.0403 27.6485 13.2601C30.1621 13.37 32.8578 14.0659 32.8578 14.0659V16.8864C31.5099 16.1905 29.9071 15.5678 27.8307 15.4212C24.2607 15.1648 22.1115 16.9231 22.1115 20C22.1115 23.1136 24.2607 24.8718 27.8307 24.5788C29.9071 24.4322 31.5099 23.7729 32.8578 23.1136V25.9341C32.8578 25.9341 30.1985 26.63 27.6485 26.7399C22.9493 26.9597 20.0351 26.044 18.3594 24.6154V40H28.0857C31.7285 40 34.7156 37.033 34.7156 33.3333V0H24.9893Z" fill="url(#paint4_linear_671_6317)"/>
<defs>
<linearGradient id="paint0_linear_671_6317" x1="36.6775" y1="22.5319" x2="53.0473" y2="22.5319" gradientUnits="userSpaceOnUse">
<stop stop-color="#007940"/>
<stop offset="0.229" stop-color="#00873F"/>
<stop offset="0.743" stop-color="#40A737"/>
<stop offset="1" stop-color="#5CB531"/>
</linearGradient>
<linearGradient id="paint1_linear_671_6317" x1="36.6744" y1="19.9656" x2="53.0456" y2="19.9656" gradientUnits="userSpaceOnUse">
<stop stop-color="#007940"/>
<stop offset="0.229" stop-color="#00873F"/>
<stop offset="0.743" stop-color="#40A737"/>
<stop offset="1" stop-color="#5CB531"/>
</linearGradient>
<linearGradient id="paint2_linear_671_6317" x1="36.6771" y1="17.1748" x2="53.0478" y2="17.1748" gradientUnits="userSpaceOnUse">
<stop stop-color="#007940"/>
<stop offset="0.229" stop-color="#00873F"/>
<stop offset="0.743" stop-color="#40A737"/>
<stop offset="1" stop-color="#5CB531"/>
</linearGradient>
<linearGradient id="paint3_linear_671_6317" x1="0.0287782" y1="19.9656" x2="16.652" y2="19.9656" gradientUnits="userSpaceOnUse">
<stop stop-color="#1F286F"/>
<stop offset="0.475" stop-color="#004E94"/>
<stop offset="0.826" stop-color="#0066B1"/>
<stop offset="1" stop-color="#006FBC"/>
</linearGradient>
<linearGradient id="paint4_linear_671_6317" x1="18.265" y1="19.9656" x2="34.4103" y2="19.9656" gradientUnits="userSpaceOnUse">
<stop stop-color="#6C2C2F"/>
<stop offset="0.173" stop-color="#882730"/>
<stop offset="0.573" stop-color="#BE1833"/>
<stop offset="0.859" stop-color="#DC0436"/>
<stop offset="1" stop-color="#E60039"/>
</linearGradient>
</defs>
</svg>
