<svg width="32" height="22" viewBox="0 0 32 22" fill="none" xmlns="http://www.w3.org/2000/svg">
<path d="M0 0H32V14.8621L16 19L0 14.8621V0Z" fill="#0036F8"/>
<path d="M0 16L16 20L32 16V17.8621L16 22L0 17.8621V16Z" fill="#0036F8"/>
<path d="M3.6 9.37V8.32H6.6V9.37H3.6ZM10.0392 12.15C9.67589 12.15 9.33422 12.075 9.01422 11.925C8.69755 11.775 8.42422 11.5667 8.19422 11.3C7.96422 11.0333 7.79922 10.7233 7.69922 10.37L9.00922 10.02C9.05255 10.19 9.12922 10.3367 9.23922 10.46C9.35255 10.5833 9.48255 10.68 9.62922 10.75C9.77922 10.8167 9.93255 10.85 10.0892 10.85C10.2959 10.85 10.4842 10.8 10.6542 10.7C10.8276 10.6 10.9642 10.465 11.0642 10.295C11.1676 10.125 11.2192 9.93667 11.2192 9.73C11.2192 9.52333 11.1676 9.335 11.0642 9.165C10.9642 8.995 10.8276 8.86 10.6542 8.76C10.4842 8.66 10.2959 8.61 10.0892 8.61C9.83589 8.61 9.62922 8.65333 9.46922 8.74C9.30922 8.82333 9.18922 8.90333 9.10922 8.98L7.95922 8.63L8.17922 4.8H12.1092V6.07H8.92922L9.40922 5.62L9.25922 8.09L9.02922 7.81C9.20922 7.66333 9.41422 7.55667 9.64422 7.49C9.87422 7.42333 10.0892 7.39 10.2892 7.39C10.7426 7.39 11.1409 7.49167 11.4842 7.695C11.8309 7.895 12.1009 8.17167 12.2942 8.525C12.4909 8.875 12.5892 9.27667 12.5892 9.73C12.5892 10.1833 12.4709 10.5933 12.2342 10.96C11.9976 11.3233 11.6859 11.6133 11.2992 11.83C10.9126 12.0433 10.4926 12.15 10.0392 12.15ZM16.4579 12.15C15.9246 12.15 15.4579 12.0383 15.0579 11.815C14.6579 11.5917 14.3462 11.28 14.1229 10.88C13.8996 10.48 13.7879 10.0133 13.7879 9.48V7.32C13.7879 6.78667 13.8996 6.32 14.1229 5.92C14.3462 5.52 14.6579 5.20833 15.0579 4.985C15.4579 4.76167 15.9246 4.65 16.4579 4.65C16.9912 4.65 17.4579 4.76167 17.8579 4.985C18.2579 5.20833 18.5696 5.52 18.7929 5.92C19.0162 6.32 19.1279 6.78667 19.1279 7.32V9.48C19.1279 10.0133 19.0162 10.48 18.7929 10.88C18.5696 11.28 18.2579 11.5917 17.8579 11.815C17.4579 12.0383 16.9912 12.15 16.4579 12.15ZM16.4579 10.86C16.6979 10.86 16.9146 10.8033 17.1079 10.69C17.3012 10.5767 17.4546 10.4233 17.5679 10.23C17.6812 10.0367 17.7379 9.82 17.7379 9.58V7.21C17.7379 6.97 17.6812 6.75333 17.5679 6.56C17.4546 6.36667 17.3012 6.21333 17.1079 6.1C16.9146 5.98667 16.6979 5.93 16.4579 5.93C16.2179 5.93 16.0012 5.98667 15.8079 6.1C15.6146 6.21333 15.4612 6.36667 15.3479 6.56C15.2346 6.75333 15.1779 6.97 15.1779 7.21V9.58C15.1779 9.82 15.2346 10.0367 15.3479 10.23C15.4612 10.4233 15.6146 10.5767 15.8079 10.69C16.0012 10.8033 16.2179 10.86 16.4579 10.86ZM21.6262 12L20.7262 11.1L27.0262 4.8L27.9262 5.71L21.6262 12ZM26.4262 12.15C26.0962 12.15 25.7945 12.07 25.5212 11.91C25.2512 11.7467 25.0345 11.53 24.8712 11.26C24.7078 10.9867 24.6262 10.6833 24.6262 10.35C24.6262 10.0233 24.7095 9.72333 24.8762 9.45C25.0428 9.17667 25.2628 8.95833 25.5362 8.795C25.8095 8.63167 26.1062 8.55 26.4262 8.55C26.7562 8.55 27.0578 8.63167 27.3312 8.795C27.6045 8.955 27.8212 9.17167 27.9812 9.445C28.1445 9.715 28.2262 10.0167 28.2262 10.35C28.2262 10.6833 28.1445 10.9867 27.9812 11.26C27.8212 11.53 27.6045 11.7467 27.3312 11.91C27.0578 12.07 26.7562 12.15 26.4262 12.15ZM26.4262 11C26.5428 11 26.6495 10.97 26.7462 10.91C26.8462 10.85 26.9262 10.7717 26.9862 10.675C27.0462 10.575 27.0762 10.4667 27.0762 10.35C27.0762 10.2333 27.0462 10.1267 26.9862 10.03C26.9262 9.93 26.8462 9.85 26.7462 9.79C26.6495 9.73 26.5428 9.7 26.4262 9.7C26.3095 9.7 26.2012 9.73 26.1012 9.79C26.0045 9.85 25.9262 9.93 25.8662 10.03C25.8062 10.1267 25.7762 10.2333 25.7762 10.35C25.7762 10.4667 25.8062 10.575 25.8662 10.675C25.9262 10.7717 26.0045 10.85 26.1012 10.91C26.2012 10.97 26.3095 11 26.4262 11ZM22.2262 8.25C21.8962 8.25 21.5945 8.17 21.3212 8.01C21.0478 7.84667 20.8295 7.63 20.6662 7.36C20.5062 7.08667 20.4262 6.78333 20.4262 6.45C20.4262 6.12333 20.5095 5.82333 20.6762 5.55C20.8428 5.27667 21.0628 5.05833 21.3362 4.895C21.6095 4.73167 21.9062 4.65 22.2262 4.65C22.5562 4.65 22.8562 4.73167 23.1262 4.895C23.3995 5.055 23.6178 5.27167 23.7812 5.545C23.9445 5.815 24.0262 6.11667 24.0262 6.45C24.0262 6.78333 23.9445 7.08667 23.7812 7.36C23.6178 7.63 23.3995 7.84667 23.1262 8.01C22.8562 8.17 22.5562 8.25 22.2262 8.25ZM22.2262 7.1C22.3428 7.1 22.4495 7.07 22.5462 7.01C22.6462 6.95 22.7262 6.87167 22.7862 6.775C22.8462 6.675 22.8762 6.56667 22.8762 6.45C22.8762 6.33333 22.8462 6.22667 22.7862 6.13C22.7262 6.03 22.6462 5.95 22.5462 5.89C22.4495 5.83 22.3428 5.8 22.2262 5.8C22.1095 5.8 22.0012 5.83 21.9012 5.89C21.8045 5.95 21.7262 6.03 21.6662 6.13C21.6062 6.22667 21.5762 6.33333 21.5762 6.45C21.5762 6.56667 21.6062 6.675 21.6662 6.775C21.7262 6.87167 21.8045 6.95 21.9012 7.01C22.0012 7.07 22.1095 7.1 22.2262 7.1Z" fill="white"/>
</svg>
