<svg width="31" height="42" viewBox="0 0 31 42" fill="none" xmlns="http://www.w3.org/2000/svg">
<path fill-rule="evenodd" clip-rule="evenodd" d="M16 2C14.3431 2 13 3.34315 13 5C13 6.65685 14.3431 8 16 8C17.6569 8 19 6.65685 19 5C19 3.34315 17.6569 2 16 2ZM11 5C11 2.23858 13.2386 0 16 0C18.7614 0 21 2.23858 21 5C21 7.76142 18.7614 10 16 10C13.2386 10 11 7.76142 11 5Z" fill="#A20E8B"/>
<path fill-rule="evenodd" clip-rule="evenodd" d="M5 18C3.34315 18 2 19.3431 2 21C2 22.6569 3.34315 24 5 24C6.65685 24 8 22.6569 8 21C8 19.3431 6.65685 18 5 18ZM0 21C0 18.2386 2.23858 16 5 16C7.76142 16 10 18.2386 10 21C10 23.7614 7.76142 26 5 26C2.23858 26 0 23.7614 0 21Z" fill="#A20E8B"/>
<path fill-rule="evenodd" clip-rule="evenodd" d="M26 18C24.3431 18 23 19.3431 23 21C23 22.6569 24.3431 24 26 24C27.6569 24 29 22.6569 29 21C29 19.3431 27.6569 18 26 18ZM21 21C21 18.2386 23.2386 16 26 16C28.7614 16 31 18.2386 31 21C31 23.7614 28.7614 26 26 26C23.2386 26 21 23.7614 21 21Z" fill="#A20E8B"/>
<path d="M25 21C25 20.4477 25.4477 20 26 20C26.5523 20 27 20.4477 27 21C27 21.5523 26.5523 22 26 22C25.4477 22 25 21.5523 25 21Z" fill="#A20E8B"/>
<path fill-rule="evenodd" clip-rule="evenodd" d="M16 34C14.3431 34 13 35.3431 13 37C13 38.6569 14.3431 40 16 40C17.6569 40 19 38.6569 19 37C19 35.3431 17.6569 34 16 34ZM11 37C11 34.2386 13.2386 32 16 32C18.7614 32 21 34.2386 21 37C21 39.7614 18.7614 42 16 42C13.2386 42 11 39.7614 11 37Z" fill="#A20E8B"/>
<path fill-rule="evenodd" clip-rule="evenodd" d="M23.6893 17.5855L17.1893 8.58549L18.8107 7.41451L25.3107 16.4145L23.6893 17.5855Z" fill="#A20E8B"/>
<path fill-rule="evenodd" clip-rule="evenodd" d="M18.8107 34.5855L25.3107 25.5855L23.6893 24.4145L17.1893 33.4145L18.8107 34.5855Z" fill="#A20E8B"/>
<path fill-rule="evenodd" clip-rule="evenodd" d="M22 22H9V20H22V22Z" fill="#A20E8B"/>
</svg>
