<svg width="16" height="16" viewBox="0 0 16 16" fill="none" xmlns="http://www.w3.org/2000/svg">
<path fill-rule="evenodd" clip-rule="evenodd" d="M2.16667 6.94443C2.16667 3.74853 4.78329 1.16666 8 1.16666C11.2167 1.16666 13.8333 3.74853 13.8333 6.94443C13.8333 8.93212 12.6742 10.8939 11.4457 12.3219C10.824 13.0446 10.1642 13.6547 9.58218 14.0885C9.29163 14.3051 9.01238 14.4839 8.76031 14.6108C8.52402 14.7298 8.25417 14.8333 8 14.8333C7.74584 14.8333 7.47599 14.7298 7.2397 14.6108C6.98763 14.4839 6.70838 14.3051 6.41783 14.0885C5.83581 13.6547 5.17597 13.0446 4.5543 12.3219C3.32582 10.8939 2.16667 8.93212 2.16667 6.94443ZM8 8.66666C6.89544 8.66666 6 7.77123 6 6.66666C6 5.56209 6.89544 4.66666 8 4.66666C9.10457 4.66666 10 5.56209 10 6.66666C10 7.77123 9.10457 8.66666 8 8.66666Z" fill="black"/>
</svg>
