<svg width="16" height="16" viewBox="0 0 16 16" fill="none" xmlns="http://www.w3.org/2000/svg">
<path fill-rule="evenodd" clip-rule="evenodd" d="M0.833374 5.99999C0.833374 3.8829 2.54962 2.16666 4.66671 2.16666H11.3334C13.4505 2.16666 15.1667 3.8829 15.1667 5.99999V9.99999C15.1667 12.1171 13.4505 13.8333 11.3334 13.8333H4.66671C2.54962 13.8333 0.833374 12.1171 0.833374 9.99999V5.99999ZM4.45004 5.39999C4.11867 5.15146 3.64857 5.21862 3.40004 5.54999C3.15151 5.88136 3.21867 6.35146 3.55004 6.59999L6.35004 8.69999C7.32782 9.43332 8.67226 9.43332 9.65004 8.69999L12.45 6.59999C12.7814 6.35146 12.8486 5.88136 12.6 5.54999C12.3515 5.21862 11.8814 5.15146 11.55 5.39999L8.75004 7.49999C8.3056 7.83332 7.69449 7.83332 7.25004 7.49999L4.45004 5.39999Z" fill="black"/>
</svg>
