<svg width="68" height="40" viewBox="0 0 68 40" fill="none" xmlns="http://www.w3.org/2000/svg">
<path d="M67.9988 20C67.9988 30.9744 59.0311 40 47.8988 40C36.8696 40 27.7988 30.9744 27.7988 20C27.7988 9.02564 36.7665 0 47.7958 0C59.0311 0 67.9988 9.02564 67.9988 20Z" fill="#F9B50B"/>
<path d="M41.095 20.1026C41.095 18.6667 40.8888 17.2308 40.6827 15.8974H28.3134C28.4165 15.1795 28.6227 14.5641 28.8288 13.7436H39.8581C39.6519 13.0256 39.3427 12.3077 39.0334 11.5897H29.6534C29.9627 10.8718 30.375 10.2564 30.7873 9.4359H37.8996C37.4873 8.71795 36.9719 8 36.3534 7.28205H32.4365C33.055 6.5641 33.6734 5.94872 34.4981 5.23077C30.9934 1.94872 26.2519 0 20.995 0C10.0688 0.307692 0.998047 9.02564 0.998047 20C0.998047 30.9744 9.96574 40 21.098 40C26.355 40 30.9934 37.9487 34.6011 34.7692C35.3227 34.1539 35.9411 33.4359 36.6627 32.6154H32.5396C32.0242 32 31.5088 31.2821 31.0965 30.5641H38.1057C38.5181 29.9487 38.9304 29.2308 39.2396 28.4103H29.8596C29.5504 27.7949 29.2411 27.0769 29.035 26.2564H40.0642C40.6827 24.4103 41.095 22.359 41.095 20.1026Z" fill="#C8191C"/>
<path d="M28.2114 25.1292L28.5207 23.2831C28.4176 23.2831 28.2114 23.3856 28.0053 23.3856C27.2838 23.3856 27.1807 22.9754 27.2838 22.7703L27.9022 19.078H29.0361L29.3453 17.0267H28.3145L28.5207 15.7959H26.3561C26.3561 15.7959 25.1191 22.7703 25.1191 23.5908C25.1191 24.8215 25.8407 25.4369 26.8714 25.4369C27.4899 25.4369 28.0053 25.2318 28.2114 25.1292Z" fill="white"/>
<path d="M28.9316 21.7438C28.9316 24.7182 30.9932 25.4361 32.6424 25.4361C34.1886 25.4361 34.9101 25.1284 34.9101 25.1284L35.3224 23.0771C35.3224 23.0771 34.1886 23.59 33.0547 23.59C30.6839 23.59 31.0963 21.8464 31.0963 21.8464H35.4255C35.4255 21.8464 35.7347 20.513 35.7347 19.8977C35.7347 18.5643 35.0132 16.8207 32.6424 16.8207C30.5809 16.7182 28.9316 19.0771 28.9316 21.7438ZM32.6424 18.6669C33.7763 18.6669 33.5701 20.0002 33.5701 20.1028H31.1993C31.3024 20.0002 31.5086 18.6669 32.6424 18.6669Z" fill="white"/>
<path d="M46.1469 25.1273L46.5592 22.7683C46.5592 22.7683 45.5284 23.2812 44.7038 23.2812C43.2607 23.2812 42.5392 22.153 42.5392 20.8196C42.5392 18.2555 43.7761 16.9222 45.3223 16.9222C46.353 16.9222 47.2807 17.5376 47.2807 17.5376L47.5899 15.2812C47.5899 15.2812 46.353 14.7683 45.1161 14.7683C42.6423 14.7683 40.2715 16.9222 40.2715 20.9222C40.2715 23.5889 41.5084 25.3324 44.0853 25.3324C45.013 25.435 46.1469 25.1273 46.1469 25.1273Z" fill="white"/>
<path d="M16.563 16.7188C15.1199 16.7188 13.986 17.129 13.986 17.129L13.6768 18.9752C13.6768 18.9752 14.6045 18.5649 16.0476 18.5649C16.7691 18.5649 17.3876 18.6675 17.3876 19.2829C17.3876 19.6931 17.2845 19.7957 17.2845 19.7957H16.3568C14.5014 19.7957 12.543 20.5136 12.543 22.9752C12.543 24.9239 13.7799 25.3341 14.6045 25.3341C16.0476 25.3341 16.7691 24.4111 16.8722 24.4111L16.7691 25.2316H18.5214L19.346 19.3854C19.346 16.8213 17.2845 16.7188 16.563 16.7188ZM16.9753 21.4367C16.9753 21.7444 16.7691 23.488 15.5322 23.488C14.9137 23.488 14.7076 22.9752 14.7076 22.6675C14.7076 22.1546 15.0168 21.4367 16.666 21.4367C16.8722 21.4367 16.9753 21.4367 16.9753 21.4367Z" fill="white"/>
<path d="M21.409 25.3342C21.9243 25.3342 24.6043 25.4367 24.6043 22.5649C24.6043 19.8983 22.0274 20.4111 22.0274 19.3854C22.0274 18.8726 22.4397 18.6675 23.1613 18.6675C23.4705 18.6675 24.6043 18.7701 24.6043 18.7701L24.9136 16.8213C24.9136 16.8213 24.192 16.6162 22.852 16.6162C21.3059 16.6162 19.6566 17.2316 19.6566 19.3854C19.6566 21.847 22.3366 21.6418 22.3366 22.5649C22.3366 23.1803 21.6151 23.2829 21.0997 23.2829C20.172 23.2829 19.1413 22.9752 19.1413 22.9752L18.832 24.9239C19.0382 25.129 19.6566 25.3342 21.409 25.3342Z" fill="white"/>
<path d="M63.8745 15.0781L63.4622 17.9499C63.4622 17.9499 62.6376 16.9243 61.4007 16.9243C59.4422 16.9243 57.793 19.2833 57.793 22.0525C57.793 23.7961 58.6176 25.5397 60.473 25.5397C61.7099 25.5397 62.5345 24.7192 62.5345 24.7192L62.4314 25.4371H64.5961L66.1422 15.2833L63.8745 15.0781ZM62.8437 20.6166C62.8437 21.7448 62.3284 23.2833 61.0914 23.2833C60.3699 23.2833 59.9576 22.6679 59.9576 21.5397C59.9576 19.7961 60.6791 18.7704 61.7099 18.7704C62.4314 18.873 62.8437 19.3858 62.8437 20.6166Z" fill="white"/>
<path d="M4.91701 25.232L6.15393 17.6422L6.36008 25.232H7.80316L10.5862 17.6422L9.45239 25.232H11.7201L13.4724 15.0781H9.96778L7.80316 21.3345L7.70008 15.0781H4.60778L2.85547 25.232H4.91701Z" fill="white"/>
<path d="M37.9001 25.2315C38.5185 21.7443 38.6216 18.8725 40.1678 19.3854C40.3739 18.052 40.6831 17.4366 40.8893 16.9238H40.477C39.5493 16.9238 38.7247 18.1546 38.7247 18.1546L38.9308 17.0264H36.8693L35.5293 25.2315H37.9001Z" fill="white"/>
<path d="M51.0923 16.7188C49.6492 16.7188 48.5153 17.129 48.5153 17.129L48.2061 18.9752C48.2061 18.9752 49.1338 18.5649 50.5769 18.5649C51.2984 18.5649 51.9169 18.6675 51.9169 19.2829C51.9169 19.6931 51.8138 19.7957 51.8138 19.7957H50.8861C49.0307 19.7957 47.0723 20.5136 47.0723 22.9752C47.0723 24.9239 48.3092 25.3341 49.1338 25.3341C50.5769 25.3341 51.2984 24.4111 51.4015 24.4111L51.2984 25.2316H53.2569L54.0815 19.3854C54.0815 16.8213 51.8138 16.7188 51.0923 16.7188ZM51.6076 21.4367C51.6076 21.7444 51.4015 23.488 50.1646 23.488C49.5461 23.488 49.34 22.9752 49.34 22.6675C49.34 22.1546 49.6492 21.4367 51.2984 21.4367C51.5046 21.4367 51.5046 21.4367 51.6076 21.4367Z" fill="white"/>
<path d="M55.7341 25.2315C56.3525 21.7443 56.4556 18.8725 58.0017 19.3854C58.2079 18.052 58.5171 17.4366 58.7233 16.9238H58.311C57.3833 16.9238 56.5587 18.1546 56.5587 18.1546L56.7648 17.0264H54.7033L53.3633 25.2315H55.7341Z" fill="white"/>
</svg>
