<svg width="24" height="24" viewBox="0 0 24 24" fill="none" xmlns="http://www.w3.org/2000/svg">
<path d="M7.05003 18.364L18.3637 7.05028C18.7526 6.66137 18.7526 6.02497 18.3637 5.63606C17.9748 5.24715 17.3384 5.24715 16.9495 5.63606L5.63582 16.9498C5.24691 17.3387 5.24691 17.9751 5.63582 18.364C6.02473 18.7529 6.66112 18.7529 7.05003 18.364Z" fill="black"/>
<path d="M16.95 18.364L5.63626 7.05028C5.24735 6.66137 5.24735 6.02497 5.63626 5.63606C6.02517 5.24715 6.66157 5.24715 7.05048 5.63606L18.3642 16.9498C18.7531 17.3387 18.7531 17.9751 18.3642 18.364C17.9753 18.7529 17.3389 18.7529 16.95 18.364Z" fill="black"/>
</svg>
