<svg width="88" height="24" viewBox="0 0 88 24" fill="none" xmlns="http://www.w3.org/2000/svg">
<path fill-rule="evenodd" clip-rule="evenodd" d="M8.13791 0.00409548C8.92411 -0.000606933 11.2607 -0.211007 12.2504 3.12862C12.9171 5.37823 13.9791 9.0632 15.4364 14.1835H16.0299C17.5927 8.78531 18.6663 5.10035 19.2506 3.12862C20.2507 -0.245795 22.7507 0.00416161 23.7508 0.00416161L31.4663 0.00417123V23.9999H23.6024V9.85884H23.0751L18.6914 23.9999H12.7749L8.39116 9.84836H7.86384V23.9999H0V0.00417123L8.13791 0.00409548ZM42.7586 0.00417123V14.1558H43.3859L48.7183 2.51902C49.7534 0.203263 51.9595 0.00417123 51.9595 0.00417123H59.5694V24H51.5413V9.84836H50.914L45.6861 21.4852C44.651 23.7904 42.3403 24 42.3403 24H34.7305V0.00417123H42.7586ZM87.318 11.4071C86.1981 14.5798 82.6814 16.852 78.7879 16.852H70.3689V24H62.7347V11.4071H87.318Z" fill="#0F754E"/>
<path fill-rule="evenodd" clip-rule="evenodd" d="M79.1538 0.00540161H62.332C62.7324 5.34769 67.334 9.92103 72.0976 9.92103H87.8461C88.7549 5.48096 85.6263 0.00540161 79.1538 0.00540161Z" fill="url(#paint0_linear_671_6312)"/>
<defs>
<linearGradient id="paint0_linear_671_6312" x1="88.0005" y1="6.24276" x2="62.332" y2="6.24276" gradientUnits="userSpaceOnUse">
<stop stop-color="#1F5CD7"/>
<stop offset="1" stop-color="#02AEFF"/>
</linearGradient>
</defs>
</svg>
