<svg width="22" height="18" viewBox="0 0 22 18" fill="none" xmlns="http://www.w3.org/2000/svg">
<path fill-rule="evenodd" clip-rule="evenodd" d="M0.25 6C0.25 2.82436 2.82436 0.25 6 0.25H16C19.1756 0.25 21.75 2.82436 21.75 6V12C21.75 15.1756 19.1756 17.75 16 17.75H6C2.82436 17.75 0.25 15.1756 0.25 12V6ZM5.45 5.4C5.11863 5.15147 4.64853 5.21863 4.4 5.55C4.15147 5.88137 4.21863 6.35147 4.55 6.6L9.35 10.2C10.3278 10.9333 11.6722 10.9333 12.65 10.2L17.45 6.6C17.7814 6.35147 17.8485 5.88137 17.6 5.55C17.3515 5.21863 16.8814 5.15147 16.55 5.4L11.75 9C11.3056 9.33333 10.6944 9.33333 10.25 9L5.45 5.4Z" fill="white"/>
</svg>
