<svg width="24" height="24" viewBox="0 0 24 24" fill="none" xmlns="http://www.w3.org/2000/svg">
<path d="M3.581 11.687L7.60289 13.1955L9.1596 18.2268C9.25921 18.5491 9.6513 18.6682 9.91154 18.4543L12.1534 16.6176C12.3884 16.4252 12.7231 16.4156 12.9687 16.5948L17.0122 19.5451C17.2906 19.7484 17.6851 19.5951 17.7549 19.257L20.717 4.93793C20.7932 4.56862 20.4321 4.26054 20.0822 4.39654L3.57629 10.7957C3.16896 10.9536 3.17251 11.5331 3.581 11.687ZM8.90872 12.3925L16.769 7.52727C16.9102 7.44009 17.0556 7.63206 16.9343 7.74514L10.4473 13.8051C10.2193 14.0184 10.0722 14.3039 10.0305 14.6137L9.80955 16.2594C9.78029 16.4792 9.47314 16.501 9.41281 16.2883L8.56295 13.2873C8.46561 12.945 8.60745 12.5794 8.90872 12.3925Z" fill="black"/>
</svg>
