<svg width="16" height="16" viewBox="0 0 16 16" fill="none" xmlns="http://www.w3.org/2000/svg">
<path fill-rule="evenodd" clip-rule="evenodd" d="M0.833374 8.00001C0.833374 4.04197 4.042 0.833344 8.00004 0.833344C11.9581 0.833344 15.1667 4.04197 15.1667 8.00001C15.1667 11.9581 11.9581 15.1667 8.00004 15.1667C4.042 15.1667 0.833374 11.9581 0.833374 8.00001ZM8.75004 5.33334C8.75004 4.91913 8.41425 4.58334 8.00004 4.58334C7.58583 4.58334 7.25004 4.91913 7.25004 5.33334V7.73242C7.25004 8.15036 7.45892 8.54065 7.80667 8.77248L9.58402 9.95738C9.92866 10.1871 10.3943 10.094 10.6241 9.74937C10.8538 9.40472 10.7607 8.93907 10.4161 8.7093L8.75004 7.59862V5.33334Z" fill="black"/>
</svg>
