<svg width="20" height="20" viewBox="0 0 20 20" fill="none" xmlns="http://www.w3.org/2000/svg">
<path d="M14.2519 12.6449C15.1466 11.4231 15.6818 9.92234 15.6818 8.29539C15.6818 4.22267 12.3681 0.908997 8.29543 0.908997C4.22274 0.908997 0.909119 4.22267 0.909119 8.29539C0.909119 12.3681 4.22278 15.6818 8.29547 15.6818C9.92241 15.6818 11.4233 15.1465 12.6451 14.2518L17.4841 19.0908L19.0909 17.4839C19.0909 17.4839 14.2519 12.6449 14.2519 12.6449ZM8.29547 13.409C5.47565 13.409 3.18185 11.1152 3.18185 8.29539C3.18185 5.47555 5.47565 3.18175 8.29547 3.18175C11.1153 3.18175 13.4091 5.47555 13.4091 8.29539C13.4091 11.1152 11.1153 13.409 8.29547 13.409Z" fill="white"/>
</svg>
