<svg width="24" height="24" viewBox="0 0 24 24" fill="none" xmlns="http://www.w3.org/2000/svg">
<path fill-rule="evenodd" clip-rule="evenodd" d="M19.808 14.401L19.8027 14.4211C19.3946 16.0676 17.5552 17.8355 15.8659 18.2028L15.8469 18.2071C14.4811 18.4678 13.1047 18.5976 11.7294 18.5976C11.3245 18.5976 10.9197 18.5849 10.5148 18.5627L8.64897 20.4985C8.18701 20.9787 7.37514 20.6515 7.37514 19.9866V18.148C5.74928 17.6846 4.04625 15.998 3.65512 14.4211L3.65089 14.401C3.14664 12.1012 3.14664 9.7686 3.65089 7.46873L3.65512 7.44868C4.06423 5.80215 5.90362 4.03424 7.59185 3.66694L7.61193 3.66272C10.3435 3.14237 13.1143 3.14237 15.8469 3.66272L15.8659 3.66694C17.5552 4.03424 19.3946 5.80215 19.8027 7.44868L19.808 7.46873C20.3122 9.7686 20.3122 12.1012 19.808 14.401ZM15.553 5.1446C13.0159 4.66225 10.444 4.66225 7.90581 5.1446C6.79583 5.39158 5.39937 6.72674 5.12663 7.80121C4.67313 9.88048 4.67313 11.9872 5.12663 14.0665C5.39937 15.1409 6.79583 16.4771 7.90581 16.7231H7.90687C7.95655 16.7326 7.9925 16.7758 7.9925 16.8255V19.8705C7.9925 20.0225 8.17855 20.0974 8.28426 19.9876L9.73358 18.5026C9.73358 18.5026 10.888 17.3194 11.0962 17.1062C11.1163 17.0851 11.1448 17.0745 11.1734 17.0745C12.6364 17.1146 14.1006 16.9975 15.553 16.721C16.663 16.474 18.0595 15.1388 18.3322 14.0643C18.7868 11.9851 18.7868 9.87837 18.3322 7.7991C18.0595 6.72463 16.6641 5.38841 15.553 5.14248V5.1446ZM15.5922 14.2216C15.3702 14.6924 15.0477 15.0839 14.5815 15.333C14.4505 15.4037 14.2929 15.4259 14.145 15.4723C13.9748 15.4206 13.812 15.3858 13.6608 15.3235C12.0962 14.6755 10.6564 13.8395 9.51581 12.5571C8.86674 11.8278 8.35932 11.0056 7.93013 10.1348C7.7261 9.72216 7.55485 9.29258 7.38042 8.86617C7.2208 8.47776 7.45548 8.07563 7.70284 7.78221C7.93435 7.50779 8.23352 7.29669 8.557 7.14154C8.80965 7.02016 9.05808 7.08982 9.24201 7.30408C9.64055 7.76532 10.0063 8.25084 10.3023 8.78596C10.4841 9.11526 10.4344 9.5174 10.1046 9.74116C10.0243 9.79604 9.95134 9.85937 9.87629 9.92058C9.81075 9.97441 9.74943 10.0293 9.70398 10.1021C9.62152 10.2351 9.61835 10.3934 9.67121 10.538C10.0782 11.6558 10.7653 12.5244 11.8912 12.992C12.0719 13.0669 12.2527 13.1545 12.4599 13.1303C12.8077 13.0902 12.9208 12.7091 13.1639 12.5096C13.4018 12.3154 13.7062 12.3123 13.9631 12.4748C14.22 12.6374 14.4684 12.8115 14.7158 12.9867C14.9589 13.1598 15.2 13.3287 15.4241 13.525C15.6397 13.7139 15.7137 13.963 15.5922 14.2195V14.2216ZM13.572 10.5803C13.4747 10.5824 13.5128 10.5803 13.5498 10.5792C13.3933 10.5739 13.3077 10.4821 13.2908 10.3322C13.2781 10.2224 13.2686 10.1127 13.2432 10.0061C13.1914 9.7971 13.0804 9.60289 12.9039 9.47412C12.8204 9.41396 12.7263 9.36963 12.6269 9.34113C12.5011 9.30525 12.3711 9.31475 12.2453 9.28414C12.1089 9.25142 12.0339 9.14059 12.055 9.01288C12.074 8.89678 12.1872 8.80601 12.314 8.81551C13.1079 8.87251 13.6745 9.28203 13.7559 10.2151C13.7612 10.2805 13.7686 10.3502 13.7538 10.4135C13.7306 10.5159 13.6566 10.5686 13.5826 10.5792C13.5889 10.5792 13.5878 10.5803 13.5709 10.5813L13.572 10.5803ZM13.0783 8.44715C12.8352 8.32788 12.572 8.254 12.3045 8.20967C12.1882 8.19067 12.0698 8.17906 11.9525 8.16218C11.8108 8.14212 11.7347 8.05241 11.7411 7.91203C11.7474 7.78115 11.8436 7.68722 11.9863 7.6946C12.4557 7.72099 12.9092 7.82232 13.3267 8.04291C14.1756 8.49148 14.6608 9.20076 14.8025 10.1465C14.8088 10.1897 14.8194 10.2319 14.8226 10.2752C14.831 10.3818 14.8353 10.4874 14.8437 10.6277C14.8405 10.6531 14.8384 10.7132 14.8236 10.7702C14.7697 10.975 14.4579 11.0014 14.386 10.7945C14.3648 10.7333 14.3617 10.6636 14.3617 10.5971C14.3606 10.1644 14.2665 9.73166 14.0477 9.35591C13.8225 8.96855 13.48 8.64347 13.0773 8.44715H13.0783ZM15.7021 11.3719C15.5382 11.374 15.4642 11.2368 15.4537 11.09C15.4325 10.7998 15.4177 10.5074 15.3776 10.2193C15.1661 8.6973 13.9504 7.43813 12.4324 7.16793C12.2041 7.12676 11.9704 7.11621 11.7389 7.09193C11.5931 7.0761 11.4007 7.06766 11.3689 6.88612C11.3415 6.73413 11.4704 6.61275 11.6153 6.60536C11.6544 6.60325 11.6945 6.60536 11.7337 6.60536C13.6988 6.66025 11.8531 6.60958 11.7389 6.60536C13.7834 6.66447 15.4611 8.02074 15.8215 10.0388C15.8829 10.3829 15.9051 10.7354 15.9325 11.0848C15.9442 11.2315 15.8607 11.3708 15.7021 11.3729V11.3719Z" fill="black"/>
</svg>
