<svg width="79" height="24" viewBox="0 0 79 24" fill="none" xmlns="http://www.w3.org/2000/svg">
<path d="M73.6869 0.34256H68.7205C67.2191 0.34256 66.0641 0.799703 65.3711 2.28542L55.9004 23.6568H62.5992C62.5992 23.6568 63.7542 20.7997 63.9852 20.114C64.6781 20.114 71.2615 20.114 72.1854 20.114C72.4164 20.914 72.9939 23.5426 72.9939 23.5426H78.9997L73.6869 0.34256ZM65.8331 15.314C66.4106 13.9426 68.374 8.7997 68.374 8.7997C68.374 8.91399 68.9515 7.42827 69.1825 6.62827L69.6445 8.68542C69.6445 8.68542 70.915 14.2854 71.146 15.4283H65.8331V15.314Z" fill="#3362AB"/>
<path d="M56.364 16C56.364 20.8 51.9751 24 45.1608 24C42.2734 24 39.5015 23.4286 38 22.7429L38.924 17.4857L39.7325 17.8286C41.8114 18.7429 43.1974 19.0857 45.7383 19.0857C47.5862 19.0857 49.5497 18.4 49.5497 16.8C49.5497 15.7714 48.7412 15.0857 46.2003 13.9429C43.7748 12.8 40.5409 10.9714 40.5409 7.65714C40.5409 3.08571 45.0453 0 51.3976 0C53.8231 0 55.902 0.457143 57.1725 1.02857L56.2485 6.05714L55.7865 5.6C54.6315 5.14286 53.1301 4.68571 50.9356 4.68571C48.5102 4.8 47.3552 5.82857 47.3552 6.74286C47.3552 7.77143 48.7412 8.57143 50.9356 9.6C54.6315 11.3143 56.364 13.2571 56.364 16Z" fill="#3362AB"/>
<path d="M0 0.572408L0.115497 0.115265H10.0482C11.4342 0.115265 12.4737 0.572408 12.8201 2.05812L15.0146 12.3438C12.8201 6.85812 7.73828 2.40098 0 0.572408Z" fill="#F9B50B"/>
<path d="M28.9928 0.342405L18.9446 23.5424H12.1303L6.35547 4.11383C10.5134 6.7424 13.9783 10.8567 15.2487 13.7138L15.9417 16.1138L22.1785 0.228119H28.9928V0.342405Z" fill="#3362AB"/>
<path d="M31.6459 0.228119H37.9982L33.9558 23.5424H27.6035L31.6459 0.228119Z" fill="#3362AB"/>
</svg>
