<svg width="24" height="24" viewBox="0 0 24 24" fill="none" xmlns="http://www.w3.org/2000/svg">
<path d="M20.6347 15.5391C20.6136 15.4936 20.5939 15.4558 20.5756 15.4255C20.2728 14.8801 19.694 14.2106 18.8398 13.417L18.8218 13.3988L18.8127 13.3899L18.8036 13.3807H18.7944C18.4067 13.0111 18.1612 12.7626 18.0584 12.6354C17.8703 12.3931 17.8281 12.1477 17.931 11.8992C18.0036 11.7114 18.2764 11.3148 18.7489 10.7088C18.9974 10.3877 19.1942 10.1303 19.3395 9.93637C20.3877 8.54283 20.8422 7.65234 20.7028 7.26455L20.6486 7.17393C20.6122 7.11937 20.5183 7.06946 20.367 7.02394C20.2154 6.97852 20.0216 6.97101 19.7852 7.00128L17.168 7.01936C17.1256 7.00433 17.0651 7.00573 16.9862 7.02394C16.9074 7.04215 16.868 7.05128 16.868 7.05128L16.8224 7.07404L16.7863 7.10138C16.756 7.11946 16.7227 7.15126 16.6863 7.19672C16.6501 7.24201 16.6198 7.29517 16.5956 7.35574C16.3107 8.08883 15.9867 8.77042 15.6231 9.40047C15.3989 9.77617 15.193 10.1018 15.005 10.3775C14.8172 10.653 14.6597 10.8561 14.5326 10.9862C14.4053 11.1165 14.2904 11.2209 14.1872 11.2997C14.0841 11.3786 14.0055 11.4119 13.951 11.3998C13.8964 11.3876 13.845 11.3755 13.7963 11.3634C13.7116 11.3088 13.6434 11.2346 13.592 11.1407C13.5404 11.0468 13.5056 10.9286 13.4874 10.7863C13.4694 10.6438 13.4587 10.5212 13.4556 10.4182C13.4528 10.3153 13.4541 10.1697 13.4602 9.98192C13.4665 9.79403 13.4694 9.6669 13.4694 9.60024C13.4694 9.36998 13.4738 9.12008 13.4828 8.85047C13.492 8.58087 13.4994 8.36725 13.5056 8.20988C13.5118 8.05235 13.5147 7.88569 13.5147 7.70998C13.5147 7.53428 13.504 7.39648 13.4828 7.29647C13.462 7.19659 13.4299 7.09963 13.3877 7.00564C13.3452 6.91174 13.283 6.8391 13.2014 6.78753C13.1196 6.73603 13.0179 6.69516 12.8969 6.66479C12.5758 6.59213 12.1669 6.55281 11.67 6.5467C10.5431 6.53461 9.81908 6.60737 9.49797 6.7649C9.37075 6.83146 9.25562 6.9224 9.15268 7.03744C9.04359 7.17077 9.02838 7.24354 9.10713 7.25551C9.4707 7.30997 9.72808 7.44025 9.87956 7.64623L9.93415 7.75537C9.97661 7.83412 10.019 7.97354 10.0614 8.17344C10.1038 8.37333 10.1311 8.59446 10.1432 8.83669C10.1734 9.27904 10.1734 9.6577 10.1432 9.97269C10.1128 10.2878 10.0842 10.5331 10.0569 10.7088C10.0295 10.8845 9.98864 11.0269 9.93415 11.1359C9.87956 11.245 9.84324 11.3116 9.82503 11.3358C9.80686 11.36 9.79171 11.3753 9.77968 11.3813C9.70093 11.4114 9.61903 11.4268 9.53426 11.4268C9.44937 11.4268 9.34643 11.3843 9.22528 11.2995C9.10417 11.2146 8.97847 11.0981 8.84818 10.9496C8.7179 10.8011 8.57097 10.5936 8.40733 10.3271C8.24382 10.0605 8.07416 9.74549 7.89846 9.38198L7.75308 9.11836C7.66221 8.94877 7.53807 8.70182 7.38054 8.37776C7.22291 8.05356 7.08359 7.73997 6.96248 7.43704C6.91406 7.30981 6.84133 7.21295 6.7444 7.1463L6.69892 7.11895C6.66868 7.09476 6.62014 7.06907 6.55355 7.0417C6.48686 7.01436 6.41728 6.99475 6.34452 6.98269L3.85444 7.00077C3.59999 7.00077 3.42734 7.05841 3.33643 7.17354L3.30005 7.228C3.28187 7.25834 3.27271 7.30679 3.27271 7.37347C3.27271 7.44012 3.29088 7.52193 3.32726 7.61879C3.69077 8.47312 4.08607 9.29706 4.51318 10.0907C4.94028 10.8844 5.31142 11.5237 5.62639 12.0081C5.94141 12.4928 6.26252 12.9503 6.58971 13.3804C6.91689 13.8106 7.13347 14.0863 7.23943 14.2074C7.34553 14.3287 7.42886 14.4194 7.48943 14.48L7.71667 14.6981C7.86207 14.8435 8.07559 15.0177 8.35733 15.2206C8.63912 15.4236 8.95109 15.6235 9.2934 15.8206C9.63577 16.0174 10.0341 16.1779 10.4885 16.3021C10.9429 16.4264 11.3851 16.4763 11.8153 16.4522H12.8605C13.0724 16.4339 13.233 16.3672 13.3422 16.2522L13.3783 16.2067C13.4026 16.1705 13.4254 16.1143 13.4464 16.0387C13.4677 15.963 13.4782 15.8796 13.4782 15.7888C13.472 15.5283 13.4919 15.2936 13.5372 15.0846C13.5825 14.8757 13.6341 14.7181 13.6918 14.612C13.7496 14.506 13.8147 14.4166 13.8872 14.3441C13.9598 14.2714 14.0116 14.2274 14.0419 14.2122C14.0721 14.197 14.0962 14.1866 14.1144 14.1804C14.2598 14.132 14.4309 14.1789 14.628 14.3214C14.8249 14.4638 15.0096 14.6396 15.1824 14.8485C15.3551 15.0577 15.5626 15.2923 15.8049 15.5528C16.0473 15.8133 16.2593 16.007 16.441 16.1344L16.6227 16.2435C16.744 16.3162 16.9015 16.3829 17.0955 16.4435C17.289 16.504 17.4586 16.5192 17.6042 16.4889L19.9306 16.4526C20.1607 16.4526 20.3398 16.4145 20.4668 16.3389C20.5941 16.2632 20.6697 16.1798 20.694 16.089C20.7184 15.9982 20.7197 15.8951 20.6987 15.7799C20.6771 15.6649 20.6559 15.5846 20.6347 15.5391Z" fill="black"/>
</svg>
