<svg width="24" height="24" viewBox="0 0 24 24" fill="none" xmlns="http://www.w3.org/2000/svg">
<path d="M20.7273 11.775C20.7273 16.4708 16.8913 20.2775 12.1586 20.2775C10.6562 20.2775 9.24468 19.8935 8.01666 19.2195L3.27271 20.727L4.81937 16.1652C4.03915 14.884 3.5898 13.3814 3.5898 11.775C3.5898 7.0791 7.42611 3.27246 12.1586 3.27246C16.8917 3.27246 20.7273 7.0791 20.7273 11.775ZM12.1586 4.62655C8.18597 4.62655 4.95455 7.83333 4.95455 11.775C4.95455 13.3391 5.46441 14.7876 6.32686 15.966L5.42679 18.6208L8.19527 17.7409C9.33273 18.4878 10.6953 18.9234 12.1588 18.9234C16.1309 18.9234 19.3629 15.717 19.3629 11.7753C19.3629 7.83372 16.1311 4.62655 12.1586 4.62655ZM16.4856 13.7332C16.4327 13.6465 16.2928 13.5941 16.083 13.49C15.8728 13.3858 14.8398 12.8814 14.6478 12.8121C14.4553 12.7427 14.3148 12.7078 14.175 12.9163C14.0352 13.125 13.6326 13.5941 13.5098 13.7332C13.3872 13.8726 13.2649 13.8901 13.0546 13.7857C12.8448 13.6816 12.1681 13.4613 11.3658 12.7514C10.7415 12.1991 10.3199 11.5172 10.1973 11.3083C10.0749 11.0999 10.1845 10.9872 10.2894 10.8834C10.3841 10.7899 10.4997 10.64 10.6046 10.5184C10.7099 10.3966 10.7448 10.3099 10.8144 10.1707C10.8848 10.0316 10.8497 9.91004 10.797 9.8055C10.7446 9.70136 10.3241 8.67581 10.1492 8.25845C9.97428 7.84148 9.79954 7.91091 9.67678 7.91091C9.5544 7.91091 9.41418 7.89346 9.27416 7.89346C9.13414 7.89346 8.90645 7.94562 8.71387 8.15411C8.52148 8.36279 7.97903 8.86703 7.97903 9.89239C7.97903 10.9179 8.73132 11.9088 8.83663 12.0476C8.94155 12.1865 10.2892 14.3594 12.4245 15.1939C14.56 16.028 14.56 15.7497 14.9451 15.7148C15.3299 15.6801 16.1875 15.2108 16.3632 14.7244C16.5378 14.2372 16.5378 13.82 16.4856 13.7332Z" fill="black"/>
</svg>
