<svg width="24" height="24" viewBox="0 0 24 24" fill="none" xmlns="http://www.w3.org/2000/svg">
<path d="M20.7169 10.466C20.7102 10.0978 20.6807 9.63236 20.6291 9.07C20.5772 8.50732 20.503 8.00446 20.4065 7.56139C20.2961 7.06372 20.0563 6.64436 19.6873 6.30345C19.3183 5.96246 18.8887 5.7648 18.3987 5.71018C16.867 5.53984 14.5523 5.45459 11.4546 5.45459C8.35685 5.45459 6.04212 5.53984 4.51046 5.71018C4.02053 5.76477 3.5927 5.96246 3.22713 6.30345C2.86143 6.64425 2.62339 7.06361 2.51297 7.56139C2.4096 8.0046 2.33188 8.50743 2.28015 9.07C2.2285 9.63236 2.19914 10.0976 2.19229 10.466C2.18529 10.8341 2.18188 11.3454 2.18188 12C2.18188 12.6546 2.18529 13.166 2.19232 13.5341C2.19918 13.9025 2.22854 14.3677 2.28019 14.9301C2.33192 15.4927 2.40612 15.9956 2.50272 16.4387C2.61313 16.9365 2.85284 17.3558 3.22195 17.6966C3.59114 18.0375 4.02071 18.2352 4.5105 18.2898C6.04216 18.4603 8.35674 18.5455 11.4546 18.5455C14.5526 18.5455 16.867 18.4603 18.3988 18.2898C18.8888 18.2352 19.3164 18.0375 19.6821 17.6966C20.0478 17.3558 20.2857 16.9363 20.3961 16.4387C20.4996 15.9956 20.5772 15.4927 20.6291 14.9301C20.6807 14.3678 20.71 13.9023 20.7169 13.5341C20.7239 13.166 20.7273 12.6546 20.7273 12C20.7273 11.3454 20.7239 10.8341 20.7169 10.466ZM15.1182 12.5523L9.81957 15.8249C9.72293 15.8931 9.60553 15.9272 9.4676 15.9272C9.36419 15.9272 9.25725 15.8998 9.14688 15.8453C8.91924 15.7227 8.80546 15.5317 8.80546 15.2727V8.72744C8.80546 8.46849 8.91928 8.27749 9.14688 8.1548C9.38151 8.0319 9.60567 8.03878 9.81957 8.17526L15.1182 11.4479C15.3251 11.5636 15.4286 11.7478 15.4286 12.0001C15.4286 12.2523 15.3251 12.4365 15.1182 12.5523Z" fill="black"/>
</svg>
